# xmcd
#
# Track frame offsets: 
#        150
#        15158
#        29888
#        44160
#        72920
#        85053
#        100483
#        112555
#        134360
#        145618
#        165650
#
# Disc length: 2332 seconds
#
# Revision: 2
# Processed by: cddbd v1.5.1PL2 Copyright (c) Steve Scherf et al.
# Submitted via: ExactAudioCopy v0.95b3
#
DISCID=8d091a0b
DTITLE=Roy Buchanan - Dancing On The Edge
DYEAR=1986
DGENRE=Blues
TTITLE0=Peter Gunn
TTITLE1=The Chokin' Kind
TTITLE2=Jungle Gym
TTITLE3=Drowning On Dry Land
TTITLE4=Petal To The Metal
TTITLE5=You Can't Judge A Book By The Cover
TTITLE6=Cream Of The Crop
TTITLE7=Beer Drinking Woman
TTITLE8=Whiplash
TTITLE9=Baby Baby Baby
TTITLE10=Matthew
EXTD=
EXTT0=
EXTT1=
EXTT2=
EXTT3=
EXTT4=
EXTT5=
EXTT6=
EXTT7=
EXTT8=
EXTT9=
EXTT10=
PLAYORDER=
